<?xml version="1.0" standalone="no"?>
<!DOCTYPE svg PUBLIC "-//W3C//DTD SVG 20010904//EN"
 "http://www.w3.org/TR/2001/REC-SVG-20010904/DTD/svg10.dtd">
<svg version="1.0" xmlns="http://www.w3.org/2000/svg"
 width="200.000000pt" height="200.000000pt" viewBox="0 0 200.000000 200.000000"
 preserveAspectRatio="xMidYMid meet">

<g transform="translate(0.000000,200.000000) scale(0.100000,-0.100000)"
fill="#000000" stroke="none">
<path d="M1250 1550 c0 -18 7 -20 60 -20 53 0 60 2 60 20 0 18 -7 20 -60 20
-53 0 -60 -2 -60 -20z"/>
<path d="M1250 1480 l0 -30 60 0 60 0 0 30 0 30 -60 0 -60 0 0 -30z"/>
<path d="M1250 1370 l0 -60 60 0 60 0 0 60 0 60 -60 0 -60 0 0 -60z"/>
<path d="M150 1271 c-63 -23 -120 -77 -120 -116 0 -23 3 -25 51 -25 43 0 55 4
78 29 45 48 189 54 245 10 45 -36 34 -49 -41 -49 -106 0 -242 -19 -289 -39
-109 -49 -91 -180 33 -227 60 -23 209 -15 277 14 47 22 48 22 53 2 5 -17 14
-20 65 -20 58 0 60 1 54 23 -3 12 -6 85 -6 163 0 130 -2 144 -23 175 -36 55
-85 72 -212 76 -90 3 -120 0 -165 -16z m280 -245 c0 -25 -40 -64 -78 -77 -48
-17 -180 -17 -209 -1 -26 14 -30 44 -10 61 23 19 89 29 195 30 80 1 102 -2
102 -13z"/>
<path d="M847 1276 c-20 -8 -44 -19 -52 -26 -13 -10 -15 -9 -15 9 0 19 -6 21
-60 21 l-60 0 0 -215 0 -215 60 0 60 0 0 125 c0 145 11 178 65 201 19 8 56 14
83 14 59 0 96 -25 105 -70 6 -29 8 -30 67 -30 l60 0 0 33 c0 66 -46 127 -115
154 -41 16 -152 15 -198 -1z"/>
<path d="M1579 1274 c-87 -26 -125 -92 -94 -158 25 -53 77 -73 235 -91 147
-16 179 -30 147 -62 -15 -15 -37 -18 -133 -18 -114 0 -116 0 -138 28 -19 24
-29 27 -79 27 l-57 0 6 -27 c10 -43 21 -60 53 -82 84 -60 309 -68 414 -14 33
16 67 68 67 101 0 43 -29 83 -76 104 -27 11 -94 25 -167 33 -67 7 -130 17
-139 20 -21 8 -24 41 -4 48 66 26 206 17 237 -14 14 -14 33 -19 78 -19 57 0
58 1 53 25 -7 39 -57 83 -114 100 -65 19 -226 19 -289 -1z"/>
<path d="M1250 1065 l0 -215 60 0 60 0 0 215 0 215 -60 0 -60 0 0 -215z"/>
<path d="M950 685 c0 -16 -6 -25 -15 -25 -8 0 -15 -4 -15 -10 0 -5 7 -10 15
-10 11 0 15 -13 15 -54 0 -74 6 -86 44 -85 l31 0 -22 16 c-19 13 -23 25 -23
69 0 47 2 54 20 54 11 0 20 5 20 10 0 6 -9 10 -20 10 -15 0 -20 7 -20 25 0 16
-6 25 -15 25 -9 0 -15 -9 -15 -25z"/>
<path d="M48 656 c-13 -7 -24 -22 -26 -38 -3 -23 3 -28 42 -43 32 -12 46 -23
46 -36 0 -14 -7 -19 -28 -19 -15 0 -33 5 -39 11 -19 19 -35 6 -20 -16 17 -22
77 -26 101 -6 19 16 21 55 4 68 -7 6 -26 15 -43 20 -39 12 -47 43 -11 43 14 0
28 -4 31 -10 3 -5 13 -10 21 -10 11 0 12 4 5 19 -13 23 -53 32 -83 17z"/>
<path d="M232 659 c-12 -5 -29 -6 -37 -3 -13 5 -15 -11 -15 -110 0 -71 4 -116
10 -116 6 0 10 18 10 41 0 35 2 40 18 33 56 -24 102 12 102 81 0 58 -40 92
-88 74z m46 -31 c16 -16 16 -80 0 -96 -22 -22 -58 -14 -69 15 -23 62 28 122
69 81z"/>
<path d="M389 656 c-27 -13 -37 -36 -15 -36 9 0 16 5 16 11 0 17 54 6 58 -12
2 -12 -7 -18 -33 -22 -20 -3 -43 -11 -51 -18 -41 -34 12 -103 61 -81 14 6 32
9 40 6 12 -5 15 5 15 64 0 44 -5 73 -12 79 -22 17 -55 21 -79 9z m59 -103 c-2
-24 -8 -28 -33 -28 -21 0 -31 5 -33 19 -5 22 13 36 46 36 20 0 23 -4 20 -27z"/>
<path d="M569 658 c-76 -26 -59 -161 19 -161 30 0 72 26 72 45 0 14 -30 9 -36
-7 -7 -18 -45 -20 -62 -3 -15 15 -16 63 -2 89 13 23 58 26 66 4 6 -16 34 -21
34 -7 0 11 -30 37 -50 44 -8 3 -27 1 -41 -4z"/>
<path d="M728 656 c-86 -43 -35 -191 54 -157 28 10 44 29 34 38 -3 4 -17 1
-30 -6 -31 -17 -57 -11 -67 17 -8 21 -6 22 51 22 51 0 60 3 60 18 -1 54 -55
91 -102 68z m60 -28 c24 -24 13 -38 -28 -38 -32 0 -40 4 -40 18 0 10 3 22 7
25 11 11 48 8 61 -5z"/>
<path d="M1094 662 c-56 -8 -78 -102 -36 -145 49 -48 127 -10 127 62 0 59 -37
92 -91 83z m40 -28 c20 -8 31 -66 17 -93 -14 -25 -53 -28 -71 -5 -27 31 -9
104 25 104 8 0 20 -3 29 -6z"/>
<path d="M1345 660 c-32 -12 -47 -37 -49 -79 -1 -56 27 -85 76 -78 33 4 38 2
38 -14 0 -11 -11 -24 -25 -31 -20 -9 -28 -8 -43 5 -20 19 -42 22 -42 8 0 -17
43 -41 72 -41 54 0 68 29 68 134 l0 95 -29 -1 c-15 -1 -32 1 -37 4 -5 3 -18 2
-29 -2z m53 -32 c20 -20 15 -86 -8 -98 -45 -24 -86 39 -55 86 17 26 44 31 63
12z"/>
<path d="M1633 655 c-33 -14 -43 -32 -43 -79 0 -64 54 -100 109 -72 32 17 41
34 41 77 0 64 -49 98 -107 74z m71 -47 c20 -58 -28 -112 -70 -78 -17 15 -19
81 -2 98 22 22 62 10 72 -20z"/>
<path d="M1490 580 c0 -64 3 -80 15 -80 11 0 15 13 15 54 0 48 3 57 27 74 31
22 24 44 -7 24 -12 -7 -20 -8 -20 -2 0 5 -7 10 -15 10 -12 0 -15 -16 -15 -80z"/>
<path d="M1764 644 c3 -8 14 -44 23 -80 23 -87 45 -88 69 -2 l18 63 19 -63
c25 -85 43 -81 74 18 12 41 23 76 23 78 0 1 -7 2 -15 2 -8 0 -18 -17 -25 -42
-21 -84 -25 -85 -43 -19 -22 80 -41 80 -63 -1 -19 -66 -23 -65 -44 20 -7 27
-16 42 -26 42 -11 0 -14 -6 -10 -16z"/>
</g>
</svg>
