<?xml version="1.0" standalone="no"?>
<!DOCTYPE svg PUBLIC "-//W3C//DTD SVG 20010904//EN"
 "http://www.w3.org/TR/2001/REC-SVG-20010904/DTD/svg10.dtd">
<svg version="1.0" xmlns="http://www.w3.org/2000/svg"
 width="863.000000pt" height="409.000000pt" viewBox="0 0 863.000000 409.000000"
 preserveAspectRatio="xMidYMid meet">

<g transform="translate(0.000000,409.000000) scale(0.100000,-0.100000)"
fill="#000000" stroke="none">
<path d="M1381 3455 c-550 -97 -994 -549 -1106 -1126 -30 -157 -30 -451 1
-574 4 -18 -10 -31 -100 -85 -130 -78 -123 -101 9 -29 51 27 94 49 98 49 3 0
19 -44 36 -97 54 -175 168 -381 279 -505 86 -96 89 -75 -32 -197 -60 -60 -107
-114 -105 -120 3 -7 58 38 123 98 l120 110 49 -45 c218 -195 537 -314 846
-314 581 0 1095 386 1279 960 57 179 67 246 67 465 0 221 -10 292 -69 467
l-32 98 74 72 c148 146 279 316 361 469 46 86 90 195 66 164 -96 -124 -252
-276 -389 -381 -72 -55 -188 -134 -197 -134 -4 0 -36 42 -71 92 -118 173 -317
348 -503 440 -87 44 -195 83 -300 109 -108 28 -383 35 -504 14z m230 -98 c-1
-12 -15 -9 -19 4 -3 6 1 10 8 8 6 -3 11 -8 11 -12z m278 -153 c-9 -11 -15 -12
-25 -3 -11 9 -12 15 -3 25 9 11 15 12 25 3 11 -9 12 -15 3 -25z m-354 -4 c0
-7 -6 -15 -12 -17 -8 -3 -13 4 -13 17 0 13 5 20 13 18 6 -3 12 -11 12 -18z
m155 -26 c0 -16 -16 -19 -25 -4 -8 13 4 32 16 25 5 -4 9 -13 9 -21z m-330 -94
c0 -5 7 -10 15 -10 8 0 15 -4 15 -10 0 -5 -7 -10 -15 -10 -8 0 -15 5 -15 10 0
6 -7 10 -15 10 -8 0 -15 5 -15 10 0 6 7 10 15 10 8 0 15 -4 15 -10z m210 0 c0
-5 -4 -10 -10 -10 -5 0 -10 5 -10 10 0 6 5 10 10 10 6 0 10 -4 10 -10z m-150
-45 c0 -8 -4 -15 -10 -15 -5 0 -10 7 -10 15 0 8 5 15 10 15 6 0 10 -7 10 -15z
m270 -25 c0 -5 -4 -10 -10 -10 -5 0 -10 5 -10 10 0 6 5 10 10 10 6 0 10 -4 10
-10z m-320 -19 c0 -6 -4 -13 -10 -16 -5 -3 -10 1 -10 9 0 9 5 16 10 16 6 0 10
-4 10 -9z m-103 -26 c140 -47 275 -139 442 -300 101 -97 243 -258 285 -322 16
-25 30 -33 65 -38 26 -4 48 -2 54 4 21 21 27 10 27 -54 0 -36 -2 -65 -5 -65
-3 0 -18 8 -33 18 l-27 17 28 -45 c15 -25 61 -112 102 -194 41 -81 76 -150 78
-152 2 -2 28 89 57 202 l54 206 52 40 c49 36 56 39 109 36 l57 -3 88 -248 c48
-136 95 -256 105 -267 18 -20 17 -20 -129 -20 l-146 0 16 25 c11 18 14 35 10
60 l-7 36 -87 -3 -87 -3 -3 -43 c-2 -24 2 -50 9 -58 10 -12 4 -14 -36 -14 -44
0 -47 -1 -41 -22 74 -254 72 -405 -5 -493 -56 -63 -155 -69 -302 -19 -40 13
-73 24 -74 24 -2 0 -3 4 -3 9 0 5 29 -2 64 -15 81 -29 169 -39 223 -25 50 14
97 64 114 123 19 66 15 191 -11 293 -27 110 -35 125 -62 125 -21 0 -21 1 -3
14 18 13 18 16 -16 92 l-34 79 -6 -43 c-11 -84 -122 -162 -230 -162 -31 0 -77
6 -103 14 -45 14 -48 13 -76 -11 l-30 -25 0 29 c0 22 10 34 48 59 39 25 52 29
72 22 49 -18 150 11 150 44 0 4 -9 17 -20 28 -12 12 -19 24 -16 28 2 4 36 30
75 56 60 42 73 47 86 36 9 -7 -13 34 -48 91 l-63 104 -47 3 c-53 4 -87 -11
-87 -37 0 -26 27 -46 91 -70 104 -39 104 -41 7 -105 -47 -31 -90 -56 -97 -56
-27 0 -111 52 -131 81 -24 33 -37 102 -26 143 9 36 64 96 103 112 18 8 53 14
78 14 l46 0 -63 83 c-78 102 -302 327 -386 387 -186 134 -319 186 -427 166
-54 -10 -112 -68 -130 -129 -42 -140 1 -357 121 -606 29 -62 54 -115 54 -116
0 -2 -7 -5 -15 -9 -18 -6 -44 42 -110 204 -63 153 -95 292 -95 411 0 116 17
173 67 223 63 62 155 72 280 31z m631 -77 c-6 -18 -28 -21 -28 -4 0 9 7 16 16
16 9 0 14 -5 12 -12z m-788 -93 c0 -8 -4 -15 -10 -15 -5 0 -10 7 -10 15 0 8 5
15 10 15 6 0 10 -7 10 -15z m146 -16 c10 -17 -13 -36 -27 -22 -12 12 -4 33 11
33 5 0 12 -5 16 -11z m-96 -50 c0 -5 -4 -9 -10 -9 -5 0 -10 7 -10 16 0 8 5 12
10 9 6 -3 10 -10 10 -16z m-388 -576 l93 -168 3 115 c3 130 -2 172 -23 190
-28 23 -15 30 55 30 39 0 70 -3 70 -7 0 -5 -7 -17 -15 -27 -12 -16 -15 -61
-15 -237 0 -204 1 -218 21 -243 l20 -26 -108 0 -108 0 -19 33 c-10 17 -50 88
-88 157 -38 69 -74 130 -80 135 -7 7 -9 -35 -6 -127 3 -123 6 -140 26 -168
l23 -30 -81 0 -81 0 20 26 c20 25 21 39 21 244 0 204 -1 218 -20 235 -11 10
-20 22 -20 27 0 4 49 8 109 8 l109 0 94 -167z m708 110 c12 -32 51 -143 87
-248 36 -104 69 -194 74 -199 5 -6 9 -16 9 -23 0 -10 -31 -13 -136 -13 l-136
0 16 25 c12 18 15 36 10 60 l-6 35 -59 0 c-33 0 -59 -3 -59 -7 0 -4 40 -60 89
-124 77 -100 88 -119 75 -130 -9 -7 -18 -8 -23 -3 -21 23 -174 230 -178 242
-9 21 -21 13 -25 -18 -3 -17 1 -42 8 -55 l13 -25 -81 0 -80 0 31 29 c17 16 31
32 31 36 0 3 23 96 51 205 l51 200 -21 35 -20 35 129 0 129 0 21 -57z m902 45
c-9 -9 -15 -9 -24 0 -9 9 -7 12 12 12 19 0 21 -3 12 -12z m-603 -412 c10 -12
8 -17 -8 -26 -19 -9 -21 -8 -21 15 0 28 12 32 29 11z m-649 -156 c0 -5 -7 -10
-15 -10 -8 0 -15 5 -15 10 0 6 7 10 15 10 8 0 15 -4 15 -10z m1360 -79 c0 -6
-4 -13 -10 -16 -5 -3 -10 1 -10 9 0 9 5 16 10 16 6 0 10 -4 10 -9z m179 -55
c9 -10 8 -15 -4 -20 -8 -3 -22 -3 -30 0 -12 5 -13 10 -4 20 6 8 15 14 19 14 4
0 13 -6 19 -14z m-1088 -67 c44 -40 79 -80 79 -90 0 -24 -29 -39 -56 -29 -28
11 -87 70 -121 122 -26 39 -27 41 -8 54 10 8 21 14 23 14 2 0 39 -32 83 -71z
m934 52 c7 -12 -12 -24 -25 -16 -11 7 -4 25 10 25 5 0 11 -4 15 -9z m-203 -16
c0 -5 -5 -11 -11 -13 -6 -2 -11 4 -11 13 0 9 5 15 11 13 6 -2 11 -8 11 -13z
m-102 -74 c0 -6 -4 -13 -10 -16 -5 -3 -10 1 -10 9 0 9 5 16 10 16 6 0 10 -4
10 -9z m500 -6 c0 -8 -7 -15 -15 -15 -8 0 -15 7 -15 15 0 8 7 15 15 15 8 0 15
-7 15 -15z m-392 -23 c2 -7 -3 -12 -12 -12 -9 0 -16 7 -16 16 0 17 22 14 28
-4z m-1183 -1 c7 -12 -12 -24 -25 -16 -11 7 -4 25 10 25 5 0 11 -4 15 -9z
m1495 -1 c0 -5 -4 -10 -10 -10 -5 0 -10 5 -10 10 0 6 5 10 10 10 6 0 10 -4 10
-10z m-1855 -69 c7 -12 -12 -24 -25 -16 -11 7 -4 25 10 25 5 0 11 -4 15 -9z
m-159 -38 c-10 -10 -19 5 -10 18 6 11 8 11 12 0 2 -7 1 -15 -2 -18z m1894 -13
c0 -5 -4 -10 -10 -10 -5 0 -10 5 -10 10 0 6 5 10 10 10 6 0 10 -4 10 -10z
m-303 -26 c-9 -9 -28 6 -21 18 4 6 10 6 17 -1 6 -6 8 -13 4 -17z m-1217 -4 c0
-5 -4 -10 -9 -10 -6 0 -13 5 -16 10 -3 6 1 10 9 10 9 0 16 -4 16 -10z m-240
-10 c0 -5 -4 -10 -10 -10 -5 0 -10 5 -10 10 0 6 5 10 10 10 6 0 10 -4 10 -10z
m1798 -19 c10 -6 10 -10 -3 -21 -18 -15 -42 0 -31 19 8 13 16 14 34 2z m72
-11 c0 -5 -7 -10 -15 -10 -8 0 -15 5 -15 10 0 6 7 10 15 10 8 0 15 -4 15 -10z
m-1805 -9 c7 -12 -12 -24 -25 -16 -11 7 -4 25 10 25 5 0 11 -4 15 -9z m410 -9
c0 -18 -20 -15 -23 4 -3 10 1 15 10 12 7 -3 13 -10 13 -16z m585 -2 c0 -5 -4
-10 -10 -10 -5 0 -10 5 -10 10 0 6 5 10 10 10 6 0 10 -4 10 -10z m-270 -106
c0 -8 -4 -12 -10 -9 -5 3 -10 10 -10 16 0 5 5 9 10 9 6 0 10 -7 10 -16z m-450
-4 c0 -5 -7 -10 -15 -10 -8 0 -15 5 -15 10 0 6 7 10 15 10 8 0 15 -4 15 -10z
m150 -30 c0 -5 -4 -10 -10 -10 -5 0 -10 5 -10 10 0 6 5 10 10 10 6 0 10 -4 10
-10z m1020 -100 c0 -5 -4 -10 -10 -10 -5 0 -10 5 -10 10 0 6 5 10 10 10 6 0
10 -4 10 -10z m-1131 -46 c-9 -11 -15 -12 -25 -3 -11 9 -12 15 -3 25 9 11 15
12 25 3 11 -9 12 -15 3 -25z"/>
<path d="M2422 2071 c-12 -43 -22 -83 -22 -90 0 -7 22 -11 61 -11 45 0 60 3
56 13 -2 6 -17 47 -33 90 -16 42 -31 77 -35 77 -3 0 -16 -35 -27 -79z"/>
<path d="M1269 2059 l-26 -89 64 0 c36 0 63 3 61 8 -1 4 -16 41 -32 82 -16 41
-31 78 -35 82 -3 4 -18 -33 -32 -83z"/>
<path d="M4407 2804 c-4 -4 -7 -192 -7 -418 -1 -467 -10 -660 -31 -682 -23
-22 -140 -32 -480 -40 l-316 -7 -101 -189 -100 -189 501 6 c609 8 770 16 825
44 46 23 143 127 167 178 29 60 35 220 33 768 l-3 530 -241 3 c-132 1 -243 -1
-247 -4z"/>
<path d="M5070 2046 l0 -766 248 2 247 3 6 553 c4 303 9 559 13 567 5 13 57
15 378 15 425 0 423 0 465 -80 45 -84 22 -222 -43 -265 -39 -25 -173 -34 -498
-35 -277 0 -288 -1 -283 -19 2 -10 47 -91 98 -179 l94 -161 60 -6 c33 -4 215
-5 405 -3 406 4 414 6 524 108 111 104 161 238 159 425 -3 304 -164 545 -394
585 -30 5 -375 13 -766 16 l-713 7 0 -767z"/>
<path d="M7070 2273 c1 -540 8 -741 30 -823 15 -57 71 -112 137 -135 74 -25
446 -38 923 -30 222 3 406 8 408 9 2 2 -40 89 -92 194 l-95 189 -38 6 c-21 4
-162 7 -313 7 -151 0 -326 3 -387 7 l-113 6 0 231 c0 127 -3 376 -7 554 l-6
322 -224 0 -223 0 0 -537z"/>
</g>
</svg>
