<?xml version="1.0" encoding="iso-8859-1"?>
<!-- Uploaded to: SVG Repo, www.svgrepo.com, Generator: SVG Repo Mixer Tools -->
<svg fill="#000000" height="800px" width="800px" version="1.1" id="Capa_1" xmlns="http://www.w3.org/2000/svg" xmlns:xlink="http://www.w3.org/1999/xlink" 
	 viewBox="0 0 490.231 490.231" xml:space="preserve">
<path d="M174.715,156.075v91.39h49.024c14.313,0,16.505,4.618,16.762,9.128l0.159,2.791h0.777h5.998h0.776l0.158-2.791
	c0.129-2.255,0.525-9.128,18.104-9.128h49.324v-91.39l-45.584,0.021c-3.25,0-14.237,0.225-19.154,3.116
	c-2.857,1.669-5.014,4.053-6.613,6.92c-1.609-2.903-3.817-5.267-6.635-6.92c-4.616-2.711-13.148-3.116-17.825-3.116L174.715,156.075
	z M254.058,164.324c2.308-1.357,8.956-2.304,16.156-2.304l39.663-0.017v79.539h-43.395c-9.586,0-15.486,2-19.042,4.842
	l-0.017-67.631c0-0.238-0.03-0.448-0.036-0.679C247.496,173.367,248.779,167.41,254.058,164.324z M234.828,164.324
	c5.354,3.149,6.593,9.261,6.661,14.003c0,0.151-0.04,0.273-0.04,0.427l-0.012,67.221c-5.512-4.427-14.084-4.433-17.698-4.433
	h-43.103v-79.539l39.365,0.017C226.723,162.02,232.405,162.907,234.828,164.324z M321.686,165.374h5.908v96.233h-67.705
	c-2.753,4.778-7.507,7.267-14.719,7.267c-7.213,0-11.968-2.485-14.703-7.267h-67.594v-6.436l-5.529,2.386
	c-0.437,2.528-2.633,4.454-5.271,4.454c-2.972,0-5.385-2.419-5.385-5.401c0-2.958,2.413-5.372,5.385-5.372
	c1.097,0,2.106,0.323,2.947,0.887l7.854-3.378v-7.05l-5.379,1.647c-0.661,2.23-2.689,3.866-5.133,3.866
	c-2.968,0-5.383-2.405-5.383-5.374c0-2.977,2.414-5.379,5.383-5.379c1.29,0,2.471,0.476,3.402,1.242l7.099-2.172v-7.272
	l-5.486,0.936c-0.833,1.909-2.727,3.231-4.935,3.231c-2.958,0-5.391-2.397-5.391-5.379c0-2.969,2.433-5.379,5.391-5.379
	c1.546,0,2.93,0.668,3.915,1.715l6.502-1.122v-7.42l-5.743,0.208c-0.936,1.548-2.636,2.588-4.573,2.588
	c-2.96,0-5.39-2.407-5.39-5.373c0-2.969,2.43-5.385,5.39-5.385c1.804,0,3.401,0.898,4.38,2.266l5.94-0.214v-8.045l-6.069-0.263
	c-0.973,1.342-2.555,2.229-4.347,2.229c-2.958,0-5.39-2.416-5.39-5.379c0-2.966,2.432-5.379,5.39-5.379
	c1.956,0,3.664,1.059,4.605,2.621l5.811,0.263v-7.406l-6.623-1.188c-0.981,1.026-2.369,1.68-3.889,1.68
	c-2.968,0-5.384-2.411-5.384-5.374c0-2.974,2.416-5.384,5.384-5.384c2.22,0,4.124,1.344,4.936,3.267l5.576,0.999v-7.265l-7.4-2.279
	c-0.932,0.772-2.108,1.242-3.402,1.242c-2.972,0-5.388-2.408-5.388-5.374c0-2.968,2.416-5.384,5.388-5.384
	c2.443,0,4.483,1.642,5.134,3.874l5.673,1.74v-2.75h5.908v90.334h65.31l0.759,1.85c1.144,2.825,3.192,5.429,10.319,5.429
	c7.15,0,9.185-2.605,10.332-5.429l0.744-1.85h65.446V165.374z M200.701,144.729c-13.664,0-24.74-2.125-24.74-4.746
	s11.076-4.746,24.74-4.746c13.664,0,24.74,2.125,24.74,4.746S214.365,144.729,200.701,144.729z M174.153,132.754l-8.737-26.676
	l1.204-0.476l14.878,10.041l0.124,1.015l-3.395,1.516c-0.674,0.35-0.691,0.881-0.338,1.206l8.379,7.577l0.84-0.08l6.369-9.368
	c0.432-0.61,0.266-1.207-0.487-1.335l-4.272-0.706v-1.07l11.059-15.628h1.816l11.067,15.628v1.07l-4.272,0.706
	c-0.779,0.123-0.929,0.725-0.487,1.335l6.354,9.368l0.853,0.08l8.983-7.577c0.336-0.32,0.336-0.856-0.348-1.206l-3.39-1.516
	l0.129-1.015l14.271-10.041l1.209,0.476l-8.721,26.676c-4.443-1.989-14.621-3.395-26.551-3.445
	C188.767,129.363,178.582,130.77,174.153,132.754z M269.82,318.933c0,2.622-11.082,4.747-24.752,4.747s-24.752-2.125-24.752-4.747
	s11.082-4.747,24.752-4.747S269.82,316.311,269.82,318.933z M279.124,284.549l1.214,0.476l-8.741,26.683
	c-4.422-1.992-14.61-3.393-26.533-3.447c-11.917,0.053-22.103,1.455-26.541,3.447l-8.743-26.683l1.204-0.476l14.89,10.036
	l0.117,1.018l-3.39,1.527c-0.672,0.327-0.689,0.875-0.336,1.2l8.378,7.565l0.85-0.071l6.353-9.374
	c0.443-0.601,0.294-1.203-0.486-1.333l-4.263-0.696v-1.09l11.052-15.616h1.823l11.05,15.616v1.09l-4.265,0.696
	c-0.755,0.13-0.919,0.732-0.48,1.333l6.349,9.374l0.854,0.071l8.979-7.565c0.336-0.325,0.336-0.873-0.332-1.2l-3.384-1.527
	l0.11-1.018L279.124,284.549z M289.334,135.227c13.659,0,24.732,2.129,24.732,4.756s-11.073,4.756-24.732,4.756
	s-24.732-2.129-24.732-4.756S275.675,135.227,289.334,135.227z M262.784,132.754l-8.739-26.676l1.209-0.476l14.875,10.041
	l0.13,1.015l-3.394,1.428c-0.678,0.331-0.69,0.868-0.339,1.193l8.384,7.678l0.842-0.08l6.358-9.368
	c0.432-0.61,0.275-1.207-0.471-1.335l-4.288-0.706v-1.07l11.075-15.628h1.804l11.066,15.628v1.07l-4.269,0.706
	c-0.765,0.123-0.928,0.725-0.481,1.335l6.348,9.368l0.844,0.08l8.983-7.577c0.336-0.32,0.336-0.856-0.35-1.206l-3.394-1.516
	l0.144-1.015l14.27-10.041l1.204,0.476l-8.728,26.676c-4.439-1.989-14.613-3.395-26.544-3.445
	C277.404,129.363,267.205,130.77,262.784,132.754z M196.646,178.141c0-1.615-0.742-3.016-1.625-3.855
	c-1.257-1.226-3.173-1.68-5.497-1.68h-5.505v0.744c1.222,0.113,1.373,0.242,1.373,2.263v6.227c0,2.033-0.151,2.167-1.524,2.279
	v0.731h4.865C193.086,184.85,196.646,182.837,196.646,178.141z M188.6,174.629c0-0.471,0.027-0.908,0.112-0.947
	c0.146-0.068,0.375-0.129,0.818-0.129c1.595,0,3.663,1.139,3.663,5.176c-0.004,3.34-1.657,5.122-3.277,5.122
	c-0.896,0-1.316-0.325-1.316-1.989V174.629z M204.551,185.134c3.626,0,6.372-2.522,6.372-6.555c0-3.732-2.662-6.266-6.089-6.266
	c-4.517,0-6.546,3.529-6.546,6.581C198.288,182.36,200.753,185.134,204.551,185.134z M204.439,173.301
	c1.625,0,2.981,2.101,2.981,5.877c0,3.412-0.887,4.978-2.505,4.978c-1.856,0-3.138-2.491-3.138-5.903
	C201.777,174.964,202.989,173.301,204.439,173.301z M216.645,184.855h-4.657v-0.742c0.915-0.065,1.278-0.257,1.396-0.957
	c0.084-0.583,0.191-1.578,0.289-3.294l0.208-3.806c0.123-2.374-0.017-2.582-1.518-2.706v-0.744v-0.001h4.438l3.308,7.458
	l2.872-7.458h4.573v0.744c-1.435,0.129-1.507,0.203-1.439,2.182l0.177,6.309c0.068,2.089,0.096,2.145,1.454,2.273v0.742h-5.901
	v-0.742c1.419-0.128,1.468-0.183,1.447-2.273l-0.046-6.635h-0.082l-3.637,9.441h-1.021l-3.443-8.774h-0.038l-0.133,4.181
	c-0.053,1.611-0.028,2.52,0.049,3.103c0.068,0.694,0.481,0.869,1.704,0.957V184.855z M235.123,184.849h-6.1v-0.731
	c1.3-0.112,1.461-0.241,1.461-2.279v-6.227c0-2.021-0.168-2.15-1.461-2.263v-0.744h6.1v0.744c-1.288,0.107-1.45,0.242-1.45,2.263
	v6.222c0,2.039,0.168,2.167,1.45,2.279V184.849z M196.702,206.719v0.733h-4.679v-0.733c0.836-0.039,1.312-0.298,1.408-0.958
	c0.067-0.588,0.144-1.619,0.144-3.609v-3.463c0-1.385-0.037-1.637-0.408-2.157c-0.281-0.4-0.745-0.528-1.431-0.588v-0.736h4.17
	l6.26,7.822h0.038v-2.52c0-1.978-0.061-3.026-0.129-3.598c-0.112-0.656-0.614-0.902-1.854-0.962v-0.737h4.784v0.737
	c-0.93,0.038-1.423,0.3-1.513,0.962c-0.066,0.572-0.145,1.62-0.145,3.598v7.081h-1.625l-6.959-8.897h-0.056v3.464
	c0,1.989,0.079,3.021,0.145,3.609C194.958,206.42,195.467,206.669,196.702,206.719z M210.284,196.925
	c0.343,1.053,1.832,4.763,2.533,6.607c0.578-1.593,1.781-5.196,2.091-6.074c0.397-1.155,0.273-1.357-0.572-1.453l-0.579-0.06v-0.736
	h4.568v0.736c-1.081,0.134-1.34,0.23-2.08,1.942c-0.105,0.254-2.407,5.858-3.815,9.699h-1.457c-1.3-3.395-3.072-8.044-3.75-9.822
	c-0.62-1.609-0.996-1.708-1.904-1.82v-0.736h6.079v0.736l-0.613,0.073C210.078,196.101,210.078,196.271,210.284,196.925z
	 M224.539,204.903c0-1.106-0.722-1.727-1.872-2.26l-0.29-0.129c-1.545-0.722-3.294-1.698-3.294-3.715
	c0-2.129,1.545-3.861,4.503-3.861c0.583,0,1.181,0.075,1.737,0.225c0.426,0.112,0.741,0.186,0.982,0.263
	c0.072,0.747,0.194,1.658,0.408,2.944l-0.829,0.134c-0.411-1.245-1.064-2.591-2.561-2.591c-0.969,0-1.648,0.742-1.648,1.642
	c0,0.949,0.745,1.486,1.956,2.036l0.402,0.191c1.738,0.788,3.235,1.74,3.235,3.948c0,2.326-1.867,4.019-4.797,4.019
	c-0.746,0-1.512-0.159-2.03-0.331c-0.556-0.197-0.957-0.337-1.175-0.449c-0.152-0.861-0.392-1.882-0.632-3.149l0.829-0.24
	c0.401,1.095,1.517,3.182,3.356,3.182C223.799,206.762,224.545,206.125,224.539,204.903z M190.308,217.813h6.096v0.744
	c-1.296,0.113-1.446,0.241-1.446,2.271v6.226c0,2.034,0.151,2.169,1.446,2.275v0.734h-6.096v-0.734
	c1.299-0.106,1.452-0.246,1.452-2.275v-6.226c0-2.03-0.159-2.158-1.452-2.271V217.813z M206.848,226.677l0.807,0.134
	c-0.111,0.706-0.497,2.673-0.667,3.251h-9.341v-0.734c1.424-0.106,1.572-0.246,1.572-2.275v-6.219c0-2.023-0.148-2.157-1.42-2.277
	v-0.732h6.136v0.732c-1.362,0.12-1.508,0.255-1.508,2.277v6.464c0,0.982,0.033,1.447,0.371,1.614
	c0.308,0.156,0.734,0.175,1.317,0.175c0.595,0,1.418-0.061,1.804-0.555C206.228,228.174,206.552,227.668,206.848,226.677z
	 M217.373,226.677l0.806,0.134c-0.117,0.706-0.498,2.673-0.684,3.251h-9.334v-0.734c1.418-0.106,1.581-0.246,1.581-2.275v-6.219
	c0-2.023-0.163-2.157-1.431-2.277v-0.732h6.132v0.732c-1.353,0.12-1.508,0.255-1.508,2.277v6.464c0,0.982,0.033,1.447,0.374,1.614
	c0.303,0.156,0.736,0.175,1.319,0.175c0.6,0,1.429-0.061,1.809-0.555C216.74,228.174,217.058,227.668,217.373,226.677z
	 M224.734,217.812h4.557v0.733c-1.071,0.138-1.338,0.225-2.081,1.952c-0.112,0.246-2.407,5.849-3.824,9.693h-1.447
	c-1.296-3.395-3.066-8.041-3.75-9.816c-0.621-1.608-0.989-1.71-1.898-1.828v-0.733h6.089v0.733l-0.661,0.074
	c-0.684,0.085-0.684,0.258-0.488,0.914c0.353,1.053,1.84,4.769,2.528,6.604c0.594-1.595,1.793-5.192,2.097-6.079
	c0.397-1.155,0.273-1.354-0.567-1.45l-0.565-0.063v-0.001h0.01V217.812z M259.543,184.854h-4.65v-0.742
	c0.897-0.065,1.266-0.257,1.378-0.957c0.099-0.583,0.197-1.578,0.295-3.294l0.214-3.806c0.126-2.374-0.028-2.582-1.514-2.706v-0.744
	h4.431l3.306,7.458l2.872-7.458h4.58v0.744c-1.423,0.129-1.503,0.203-1.455,2.182l0.186,6.309c0.061,2.089,0.099,2.145,1.467,2.273
	v0.742h-5.91v-0.742c1.418-0.128,1.478-0.183,1.456-2.273l-0.056-6.635h-0.085l-3.624,9.441h-1.029l-3.437-8.774h-0.054
	l-0.126,4.181c-0.05,1.611-0.027,2.52,0.038,3.103c0.066,0.694,0.482,0.869,1.718,0.957h-0.001V184.854z M278.034,184.849h-6.112
	v-0.731c1.299-0.112,1.461-0.241,1.461-2.279v-6.227c0-2.021-0.162-2.15-1.461-2.263v-0.744h6.112v0.744
	c-1.308,0.107-1.461,0.242-1.461,2.263v6.222c0,2.039,0.164,2.167,1.461,2.279V184.849z M278.987,173.339V172.6h4.17l6.275,7.818
	h0.038v-2.523c0-1.978-0.081-3.016-0.15-3.598c-0.093-0.66-0.607-0.901-1.862-0.958V172.6h4.822v0.739
	c-0.932,0.033-1.433,0.298-1.534,0.958c-0.058,0.582-0.142,1.62-0.142,3.598v7.089h-1.631l-6.966-8.898h-0.05v3.461
	c0,1.989,0.088,3.021,0.167,3.598c0.098,0.667,0.594,0.913,1.849,0.982v0.722h-4.696v-0.722c0.837-0.052,1.32-0.315,1.406-0.982
	c0.093-0.577,0.158-1.609,0.158-3.598v-3.461c0-1.39-0.043-1.63-0.42-2.159C280.141,173.53,279.678,173.396,278.987,173.339z
	 M291.972,184.855h4.389v-0.723l-0.552-0.068c-0.872-0.091-0.872-0.282-0.62-1.092l0.564-1.8h3.102l0.668,1.917
	c0.252,0.676,0.219,0.868-0.487,0.958l-0.563,0.09v0.723h5.921v-0.723c-0.92-0.131-1.27-0.218-1.864-1.86
	c-0.719-1.913-1.528-4.148-2.349-6.383l-1.27-3.56l-1.303,0.26l-3.765,9.743c-0.635,1.582-0.919,1.659-1.871,1.8V184.855z
	 M297.246,176.428h0.066l1.182,3.6h-2.408L297.246,176.428z M270.772,196.201V196.2h-0.453v8.25c0,2.033,0.146,2.167,1.728,2.273
	v0.733h-6.592v-0.733c1.507-0.106,1.652-0.24,1.652-2.273v-8.25h-0.331c-1.237,0-1.756,0.22-2.051,0.562
	c-0.224,0.279-0.453,0.771-0.7,1.824h-0.794c0.081-1.584,0.196-2.889,0.229-3.844h0.58c0.285,0.432,0.471,0.47,0.975,0.47h7.518
	c0.495,0,0.574-0.115,0.882-0.47H274c0.022,0.792,0.115,2.394,0.208,3.79l-0.826,0.054c-0.29-1.129-0.493-1.622-0.783-1.942
	C272.282,196.308,271.669,196.201,270.772,196.201z M276.978,204.445v-6.228c0-2.022-0.153-2.155-1.451-2.273v-0.736h6.097v0.736
	c-1.297,0.117-1.451,0.251-1.451,2.273v6.228c0,2.032,0.154,2.167,1.451,2.274v0.733h-6.097v-0.733
	C276.825,206.612,276.979,206.477,276.978,204.445z M295.842,201.184c0-3.727-2.65-6.254-6.114-6.254
	c-4.485,0-6.528,3.518-6.528,6.565c0,3.464,2.469,6.244,6.282,6.244C293.088,207.744,295.842,205.223,295.842,201.184z
	 M286.701,200.863c0-3.289,1.209-4.96,2.665-4.96c1.611,0,2.974,2.102,2.974,5.879c0,3.412-0.883,4.979-2.512,4.979
	C287.979,206.762,286.701,204.275,286.701,200.863z M276.067,229.323v0.733h-5.907v-0.733c1.42-0.128,1.475-0.191,1.453-2.281
	l-0.053-6.625h-0.084l-3.633,9.437h-1.002l-3.458-8.774h-0.05l-0.126,4.175c-0.053,1.614-0.032,2.52,0.046,3.108
	c0.075,0.701,0.482,0.87,1.711,0.96v0.733h-4.656v-0.733c0.903-0.079,1.27-0.259,1.386-0.96c0.094-0.588,0.191-1.578,0.289-3.294
	l0.22-3.803c0.132-2.372-0.017-2.577-1.522-2.708v-0.744h4.432l3.306,7.463l2.886-7.463h4.58v0.744
	c-1.447,0.131-1.513,0.197-1.456,2.181l0.187,6.303C274.668,229.131,274.701,229.2,276.067,229.323z M286.621,226.57l0.837,0.129
	c-0.099,0.925-0.496,2.855-0.663,3.357h-9.576v-0.722c1.434-0.129,1.582-0.252,1.582-2.281v-6.219c0-2.042-0.148-2.176-1.406-2.283
	v-0.733h8.919c0.033,0.32,0.112,1.699,0.229,3.111l-0.842,0.055c-0.195-0.92-0.392-1.445-0.709-1.754
	c-0.309-0.317-0.921-0.432-1.929-0.432h-0.307c-0.722,0-0.758,0-0.758,0.656v3.636h0.944c1.614,0,1.679-0.107,1.862-1.535h0.821
	v4.438h-0.821c-0.182-1.647-0.248-1.759-1.862-1.759h-0.944v3.064c0,0.971,0.036,1.448,0.375,1.62
	c0.298,0.15,0.733,0.164,1.319,0.164c0.749,0,1.587-0.118,1.999-0.561C285.995,228.174,286.335,227.49,286.621,226.57z
	 M298.102,227.474c-0.724-1.912-1.534-4.142-2.344-6.383l-1.27-3.557l-1.297,0.257l-3.77,9.744c-0.625,1.581-0.904,1.66-1.872,1.794
	v0.728h4.389v-0.728l-0.551-0.062c-0.872-0.091-0.872-0.28-0.607-1.093l0.566-1.8h3.087l0.667,1.907
	c0.247,0.684,0.219,0.878-0.486,0.969l-0.564,0.084v0.729h5.921v-0.729C299.035,229.211,298.701,229.122,298.102,227.474z
	 M291.654,225.244l1.171-3.598h0.065l1.182,3.598H291.654z M228.081,381.618c0,2.719-2.208,4.927-4.937,4.927
	c-2.713,0-4.903-2.208-4.903-4.927c0-2.715,2.19-4.936,4.903-4.936C225.873,376.682,228.081,378.909,228.081,381.618z
	 M278.045,389.82c0,2.72-2.205,4.925-4.923,4.925c-2.722,0-4.931-2.205-4.931-4.925c0-2.72,2.209-4.929,4.931-4.929
	C275.84,384.891,278.045,387.1,278.045,389.82z M249.8,33.772c0,2.721-2.205,4.926-4.926,4.926c-2.721,0-4.926-2.205-4.926-4.926
	c0-2.721,2.205-4.926,4.926-4.926C247.595,28.846,249.8,31.051,249.8,33.772z M367.052,79.681c0,2.719-2.204,4.924-4.922,4.924
	c-2.722,0-4.927-2.205-4.927-4.924c0-2.723,2.205-4.928,4.927-4.928C364.848,74.753,367.052,76.958,367.052,79.681z M98.307,290.394
	c4.421-3.114,7.957-5.248,11.228-5.248c4.796,0.012,8.276,3.124,10.425,6.218c1.892,2.728,2.851,5.634,2.839,8.655
	c0,3.447-1.155,6.244-7.32,10.508L97.694,323.21l-3.277-4.722c0,0,18.223-12.975,18.506-13.176c3.156-2.173,4.501-3.772,4.501-6.261
	c0-1.576-0.571-3.284-1.715-4.931c-1.775-2.56-4.074-3.381-6.089-3.392c-1.823,0-3.782,1.285-7.302,3.731l-16.715,11.343
	l-3.225-4.629L98.307,290.394z M79.463,273.556l24.474-9.692l1.822,4.997l-33.464,12.848l-1.871-5.122l19.467-23.683l-24.964,8.723
	l-1.814-4.991l33.84-11.871l1.881,5.131L79.463,273.556z M94.346,230.113l-35.44,5.264l-0.843-5.676l35.44-5.264L94.346,230.113z
	 M92.238,201.287l-36.304,10.832l0.038-5.962l29.437-8.246l-28.41-10.939l0.139-5.939l35.341,14.35L92.238,201.287z
	 M100.621,117.272c-0.504,0.145-1.097,0.455-1.693,0.868c0.143-0.638,0.378-1.253,0.382-1.916c0.011-1.009-0.134-2.011-0.443-2.914
	c-0.679-2.101-2.181-3.806-4.442-5.059c-1.694-0.936-3.385-1.415-5.096-1.415c-5.069,0.014-7.411,2.908-10.651,8.747l-4.203,7.538
	l31.557,17.113l2.732-4.915l-13.125-7.154l0.769-1.417c2.22-3.995,2.958-4.603,8.607-4.124l10.214,0.912l2.92-5.3l-11.78-1.01
	C103.999,117.001,102.14,116.835,100.621,117.272z M92.183,124.584l-0.725,1.329l-10.096-5.42l1.588-2.802
	c2.087-3.813,3.595-5.267,5.813-5.256c0.818,0,1.856,0.214,2.903,0.78c1.342,0.75,2.372,1.989,2.752,3.316
	c0.146,0.517,0.203,1.037,0.203,1.548C94.612,120.209,93.425,122.343,92.183,124.584z M133.089,52.76l21.728,28.469l-4.56,3.481
	l-21.728-28.469L133.089,52.76z M164.611,39.245l14.276,27.417l-5.08,2.657L159.529,41.89l-9.077,4.72l-2.26-4.35l23.166-12.057
	l2.251,4.353L164.611,39.245z M212.026,17.628l-4.857,23.948l3.933,13.616l-5.468,1.569l-3.844-13.497l-17.006-17.74l5.888-1.715
	l12.238,12.747l3.082-17.246L212.026,17.628z M333.46,37.42l17.095,10.08l-2.474,4.223l-12.225-7.203l-5.023,8.528l11.491,6.78
	l-2.419,4.134l-11.51-6.779l-8.221,13.98l-4.903-2.897L333.46,37.42z M403.83,152.411l-15.823-3.598l-1.915-5.871l21.207,5.114
	l13.036-15.604l2.028,6.181l-9.7,11.105l14.411,3.245l1.918,5.809l-19.722-4.761l-14.013,16.794l-1.997-6.088L403.83,152.411z
	 M397.045,183.252l35.71-2.914l1.61,19.803l-4.883,0.391l-1.149-14.131l-9.86,0.807l1.063,13.302l-4.771,0.381l-1.083-13.303
	l-16.156,1.328L397.045,183.252z M412.847,215.187c-4.137,0-7.942,1.113-10.954,3.299c-5.406,3.915-6.379,9.537-6.379,12.832
	c0,12.11,11.36,16.958,19.919,16.958c4.109,0,7.857-1.116,10.81-3.264c6.042-4.364,6.37-10.924,6.37-13.051
	C432.606,221.394,422.904,215.187,412.847,215.187z M423.557,240.209c-2.086,1.508-4.809,2.257-7.886,2.257
	c-6.98,0-15.124-3.797-15.124-10.831c0-2.554,0.888-5.968,4.026-8.252c2.129-1.548,4.893-2.376,7.989-2.376
	c3.557,0,9.967,1.008,13.319,5.648c1.167,1.584,1.762,3.445,1.742,5.417C427.61,234.82,426.5,238.086,423.557,240.209z
	 M398.675,127.057c4.433-2.81,9.357-8.025,9.357-15.092c0-2.93-0.826-5.819-2.522-8.5c-3.136-4.947-8.049-7.502-13.456-7.502
	c-3.611,0-7.464,1.144-11.173,3.491c-6.891,4.373-9.402,10.619-9.402,15.185c0,2.955,0.821,5.85,2.502,8.513
	c3.809,6.039,9.539,7.5,13.413,7.484C391.093,130.625,395.005,129.399,398.675,127.057z M378.365,120.63
	c-1.031-1.604-1.523-3.352-1.54-5.094c-0.011-4.063,2.562-8.214,7.25-11.196c3.108-1.978,6.162-2.952,8.898-2.93
	c3.452,0,6.262,1.524,8.139,4.471c1.103,1.759,1.611,3.614,1.611,5.464c0,3.951-2.504,7.833-7.046,10.703
	c-3.175,2.028-6.382,3.091-9.203,3.091C383.267,125.139,380.354,123.782,378.365,120.63z M294.351,22.189
	c-7.479,0-13.965,5.026-16.597,13.954c-0.58,1.979-0.94,3.94-0.94,5.843c0,3.58,0.604,6.417,2.057,9.09
	c3.318,6.068,9.379,8.133,13.987,8.133c2.604,0,5.112-0.599,7.414-1.858c6.043-3.302,10.03-10.971,10.03-18.312
	c0-3.196-0.611-6.191-2.025-8.762C305.367,25.002,299.978,22.189,294.351,22.189z M292.504,54.134c-2.583,0-6.345-1.267-8.434-5.094
	c-1.019-1.85-1.465-4.096-1.465-6.422c0-6.411,4.267-15.409,12.085-15.409c4.378,0,9.878,3.255,9.878,11.36
	C304.568,43.724,300.936,54.134,292.504,54.134z M95.35,173.104l-34.653-9.497l5.918-19.899l4.707,1.325l-4.365,14.344l9.557,2.622
	l3.694-13.024l4.612,1.313l-3.676,12.978l10.809,2.963l4.012-14.154l4.801,1.363L95.35,173.104z M135.585,94.53
	c0,3.037-1.194,5.737-3.574,8.41c-4.561,5.111-10.713,5.677-10.713,5.677l-1.216-4.802c3.626-0.843,6.371-2.227,8.022-4.093
	c1.319-1.461,1.963-3.098,1.963-4.536c0-1.352-0.578-2.619-1.674-3.598c-0.904-0.801-1.984-1.08-3.178-1.059
	c-2.298,0-5.06,1.316-7.323,2.257c-4.359,1.802-8.951,3.249-13.059-0.424c-2.085-1.866-3.198-4.213-3.198-6.818
	c0-2.759,1.086-5.689,3.412-8.288c4.974-5.576,10.064-5.201,10.064-5.201l0.861,4.736c0,0-3.915,0.117-6.979,3.562
	c-1.341,1.501-2.02,3.061-2.02,4.467c0,1.171,0.46,2.178,1.368,2.99c2.481,2.214,6.721-0.241,9.368-1.305
	c2.036-0.846,4.934-2.022,7.854-2.022c2.143,0,4.391,0.615,6.431,2.443C134.385,89.05,135.585,91.722,135.585,94.53z
	 M387.545,261.523l13.534,6.134l-0.667,1.516c-1.845,4.164-2.553,4.845-8.199,4.875h-10.249l-2.451,5.527l11.813-0.033
	c2.404,0,4.263,0,5.719-0.563c0.481-0.18,1.018-0.47,1.51-0.881c-0.027,0.306-0.121,0.603-0.132,0.913
	c-0.021,1.319,0.229,2.622,0.723,3.761c1.622,3.774,6.043,5.636,9.261,5.624c5.7,0,7.877-3.414,10.654-9.685
	c0.104-0.235,3.319-7.678,3.319-7.678l-32.567-14.665L387.545,261.523z M404.844,270.963l0.597-1.367l10.342,4.628l-1.156,2.769
	c-1.93,4.366-3.19,5.768-5.948,5.768c-1.617,0-4.339-0.92-5.385-3.596c-0.262-0.678-0.369-1.373-0.359-2.057
	C402.954,275.143,403.881,273.107,404.844,270.963z M368.685,295.411c-3.711,4.651-6.535,8.804-6.535,14.172
	c0,4.566,2.068,9.752,7.316,13.922c3.469,2.79,7.392,4.283,11.438,4.283c4.988,0,8.988-1.493,15.179-9.273l5.656-7.12
	l-27.979-22.342L368.685,295.411z M394.439,312.846l-1.549,1.958c-3.802,4.756-6.384,7.568-11.439,7.568
	c-2.858,0-5.523-1.095-8.298-3.321c-2.823-2.239-5.812-5.757-5.812-10.229c0-3.113,1.686-6.084,4.29-9.334l2.372-2.988
	L394.439,312.846z M450.288,204.859C450.288,91.894,358.25,0,245.11,0C131.983,0,39.943,91.889,39.943,204.859
	c0.01,67.762,33.463,130.924,89.529,169.19c5.519,20.536,24.291,35.721,46.619,35.721c6.037,0,11.885-1.141,17.462-3.288
	c7.501,2.474,15.263,4.53,22.984,6.117c-2.175,6.228-5.357,12.116-8.389,17.232c0,0,0.08-0.022,0.181-0.045
	c-0.068,0.045-0.122,0.073-0.181,0.105l4.271,4.268c1.104-0.586,2.326-0.961,3.658-0.961c4.22,0,7.65,3.437,7.65,7.671
	c0,4.212-3.43,7.659-7.65,7.659c-3.693,0-6.929-2.358-8.617-4.897c0,0-1.001,3.458-1.001,7.996
	c-0.03,14.718,16.029,31.54,38.304,38.604c22.273-6.917,38.333-23.853,38.324-38.583c0-5.062-1.014-8.017-1.014-8.017
	c-1.708,2.058-4.477,4.897-8.656,4.897c-4.23,0-7.656-3.447-7.656-7.659c0-4.226,3.426-7.671,7.656-7.671
	c1.472,0,2.834,0.436,4.011,1.182l4.152-4.161c0.106,0.033,0.161,0.038,0.161,0.038c-2.353-5.603-4.062-10.758-5.233-15.721
	c36.893-4.958,68.028-20.572,92.772-46.594l-0.02-0.022C420.76,328.791,450.288,269.437,450.288,204.859z M176.1,404.008
	c-23.294,0-42.244-19.004-42.244-42.358c0-7.321,1.871-14.21,5.138-20.229c2.166,1.986,4.492,4.027,6.913,6.096
	c-2.058,4.351-3.238,9.171-3.238,14.271c0,12.711,6.404,23.202,18.541,30.364c6.955,4.097,14.843,7.812,23.198,11.047
	C181.677,403.735,178.918,404.008,176.1,404.008z M245.121,342.374c-8.787,0-17.457-0.845-25.938-2.47
	c-8.175-16.049-24.963-26.392-43.084-26.392c-4.452,0-8.748,0.668-12.833,1.784c-34.849-25.884-55.625-67.043-55.625-110.438
	c0-75.824,61.669-137.518,137.479-137.518c75.799,0,137.478,61.694,137.478,137.518C382.599,280.676,320.92,342.374,245.121,342.374
	z M275.709,344.817c-4.127,5.883-6.565,14.068-7.298,22.342c-13.013-3.349-24.844-7.863-35.133-12.552
	c1.957-3.798,7.577-6.479,11.836-6.479C255.621,348.128,265.848,346.958,275.709,344.817z M232.132,347.528
	c-1.748,1.3-3.163,2.859-4.158,4.562c-5.185-2.506-11.715-5.767-15.987-8.152C218.04,345.272,225.922,346.958,232.132,347.528z
	 M176.1,319.28c14.159,0,27.398,7.261,35.17,18.889c-6.814-1.724-13.482-3.971-20-6.74l-0.021,0.032l-0.205-0.12
	c-4.564-2.146-9.442-3.229-14.51-3.229c-11.271,0-21.253,5.517-27.429,13.987c-2.587-1.439-5.176-2.95-7.721-4.532
	C149.018,326.526,161.719,319.28,176.1,319.28z M273.427,427.292c-7.568,0-13.779,5.352-13.779,13.577
	c0,8.031,6.299,13.547,13.779,13.547c1.124,0,2.216-0.187,3.262-0.448c-1.559,11.377-14.824,24.115-31.915,29.822
	c-16.944-5.669-30.198-18.506-31.951-29.822c1.053,0.273,2.129,0.448,3.267,0.448c8.152,0,13.762-5.702,13.762-13.547
	c0-7.509-5.877-13.381-13.458-13.539c2.302-4.246,4.52-8.745,6.161-13.574c9.41,1.645,18.677,2.531,27.294,2.531
	c7.072,0,13.921-0.383,20.632-1.061c0.884,3.875,2.203,7.944,3.763,12.136C273.968,427.343,273.696,427.292,273.427,427.292z
	 M249.842,410.53c-27.51,0-61.854-9.356-85.445-23.271c-7.133-4.22-15.672-12.061-15.672-25.461c0-3.612,0.711-7.082,1.967-10.249
	c8.807,7.279,17.897,14.106,23.624,17.23c1.305,0.712,2.062,1.073,3.608,1.073c3.653,0,6.629-2.988,6.629-6.665
	c0-2.8-1.513-5.084-4.041-6.189c-4.887-2.123-15.095-6.347-26.098-12.055c5.092-6.706,13.104-11.075,22.12-11.075
	c4.125,0,8.094,0.887,11.789,2.638l7.555,4.398c23.976,14.649,85.653,52.204,160.125,31.553
	C327.736,397.956,292.914,410.53,249.842,410.53z M365.351,363.526c-33.336,11.798-64.443,10.99-90.986,5.062
	c0.868-11.852,5.781-24.52,13.273-26.885c58.463-18.128,101.036-72.612,101.036-136.844c0-79.009-64.406-143.282-143.553-143.282
	c-79.153,0-143.542,64.273-143.542,143.282c0,43.947,20.516,85.693,55.07,112.758c-8.191,3.605-15.201,9.443-20.262,16.694
	c-2.615-1.779-5.138-3.628-7.479-5.554l-1.305,1.308c1.562,1.893,3.999,4.395,6.908,7.174c-4.251,7.157-6.717,15.496-6.717,24.404
	c0,1.387,0.087,2.742,0.206,4.104c-51.432-37.479-81.993-97.057-81.993-160.896C46.005,95.079,135.333,5.767,245.121,5.767
	c109.789,0,199.103,89.312,199.103,199.092C444.224,267.734,415.475,325.508,365.351,363.526z"/>
</svg>